<?xml version="1.0" encoding="UTF-8"?>
<svg version="1.1" xmlns="http://www.w3.org/2000/svg" width="400" height="240">
<path d="M0 0 C132 0 264 0 400 0 C400 79.2 400 158.4 400 240 C268 240 136 240 0 240 C0 160.8 0 81.6 0 0 Z " fill="#F8F8F8" transform="translate(0,0)"/>
<path d="M0 0 C12.21 0 24.42 0 37 0 C37.66 5.94 38.32 11.88 39 18 C39.67146107 21.67114042 40.35458057 25.20757407 41.25 28.8125 C41.46470947 29.69067383 41.67941895 30.56884766 41.90063477 31.47363281 C45.83652423 46.81105088 53.4404009 62.13152837 67.05078125 70.984375 C80.70719347 78.75135915 98.69580529 81.06509136 114.1015625 77.125 C123.00631361 73.95515886 129.52253324 69.34092523 133.875 60.875 C134.61163987 59.26263441 135.32082138 57.63739962 136 56 C136.35320312 55.23945313 136.70640625 54.47890625 137.0703125 53.6953125 C139.29330272 47.25050894 139.18101293 40.22250645 139.31640625 33.46875 C139.3475779 32.15396667 139.3475779 32.15396667 139.37937927 30.81262207 C139.44420883 28.04181958 139.50344658 25.27093099 139.5625 22.5 C139.60574873 20.60936648 139.64936493 18.71874132 139.69335938 16.828125 C139.80050512 12.2188365 139.90007139 7.60947309 140 3 C128.45 3 116.9 3 105 3 C105 2.01 105 1.02 105 0 C137.34 0 169.68 0 203 0 C203 0.99 203 1.98 203 3 C193.43 3 183.86 3 174 3 C174.0825 7.00125 174.165 11.0025 174.25 15.125 C174.31819546 25.13609298 173.95667937 33.68582931 170 43 C169.34644531 44.55847656 169.34644531 44.55847656 168.6796875 46.1484375 C160.89334199 63.04012694 148.09194483 73.56351367 130.921875 80.1875 C108.82689618 87.89241569 83.12974318 88.23602133 61.7722168 78.21435547 C58.45528499 76.58055582 55.22471901 74.8074461 52 73 C51.03578125 72.47792969 50.0715625 71.95585937 49.078125 71.41796875 C34.86667532 63.1139412 23.93842717 50.60964998 15 37 C14.35675781 36.03964844 13.71351562 35.07929688 13.05078125 34.08984375 C9.16668172 27.88401281 6.31963979 21.32384016 3.5625 14.5625 C3.20776611 13.69729736 2.85303223 12.83209473 2.48754883 11.94067383 C2.16294678 11.11591553 1.83834473 10.29115723 1.50390625 9.44140625 C1.21330322 8.70607666 0.9227002 7.97074707 0.62329102 7.21313477 C0 5 0 5 0 0 Z " fill="#030303" transform="translate(19,153)"/>
<path d="M0 0 C10.56 0 21.12 0 32 0 C32 24.42 32 48.84 32 74 C45.44156461 73.90902034 45.44156461 73.90902034 58.8828125 73.79101562 C64.37106706 73.7368458 69.85922286 73.6857302 75.34765625 73.65356445 C79.77635628 73.62740919 84.20472156 73.58692187 88.63321304 73.53681374 C90.31630388 73.52022722 91.99945251 73.50866209 93.68261337 73.50238609 C106.58361886 73.44944934 117.76553112 72.65993521 128 64 C137.30482916 54.35681342 141.34649691 40.11328397 143.99609375 27.3125 C144.16423584 26.50562744 144.33237793 25.69875488 144.50561523 24.86743164 C144.8288965 23.27848429 145.13763426 21.68649057 145.42993164 20.09155273 C146.33587034 15.57179824 147.21608449 12.97195031 151 10 C153.67770615 12.67770615 153.25845391 14.00472416 153.2746582 17.74731445 C153.28419022 18.9522908 153.29372223 20.15726715 153.30354309 21.39875793 C153.30217598 23.36119698 153.30217598 23.36119698 153.30078125 25.36328125 C153.30466787 26.71608105 153.30900247 28.06887964 153.31376648 29.42167664 C153.32123564 32.26056874 153.32093335 35.09933651 153.31567383 37.93823242 C153.30989119 41.56993058 153.32677689 45.20111674 153.3500185 48.83273029 C153.36478159 51.62864644 153.36562385 54.42444019 153.36250877 57.22038841 C153.36326982 59.20841594 153.37712991 61.19642451 153.39118958 63.18440247 C153.38496078 64.3988353 153.37873199 65.61326813 153.37231445 66.86450195 C153.37294388 67.93102493 153.3735733 68.99754791 153.3742218 70.09638977 C152.94520076 73.42519069 151.97685501 75.31064028 150 78 C147.02782116 79.48608942 144.35732005 79.12260065 141.03988647 79.12025452 C139.95314005 79.12153615 139.95314005 79.12153615 138.84443915 79.12284368 C136.40456879 79.12449739 133.96476642 79.11897889 131.52490234 79.11352539 C129.78078717 79.11324347 128.03667187 79.11340135 126.29255676 79.1139679 C121.54694845 79.11425568 116.80136523 79.10836204 112.05576277 79.10139394 C107.10029698 79.09515721 102.14483067 79.09455635 97.18936157 79.09336853 C87.80064968 79.09025616 78.41194938 79.08204403 69.02324259 79.07201904 C58.33658128 79.06085499 47.64991942 79.05534672 36.96325374 79.05032361 C14.97549601 79.03986135 -7.01225127 79.02226372 -29 79 C-29 77.35 -29 75.7 -29 74 C-19.43 74 -9.86 74 0 74 C0 49.58 0 25.16 0 0 Z " fill="#000000" transform="translate(246,153)"/>
<path d="M0 0 C1.1239423 0.97772068 2.23837045 1.96780344 3.3125 3 C6.36997515 1.64735936 8.33690914 0.16536549 10.58984375 -2.29296875 C11.18603516 -2.92267578 11.78222656 -3.55238281 12.39648438 -4.20117188 C13.63621076 -5.52973007 14.867973 -6.86576305 16.09179688 -8.20898438 C16.68927734 -8.83482422 17.28675781 -9.46066406 17.90234375 -10.10546875 C18.43722412 -10.68449951 18.97210449 -11.26353027 19.52319336 -11.86010742 C21.3125 -13 21.3125 -13 26.3125 -12 C26.3125 10.11 26.3125 32.22 26.3125 55 C24.9925 55.33 23.6725 55.66 22.3125 56 C21.89291016 54.9790625 21.89291016 54.9790625 21.46484375 53.9375 C20.35349672 51.25025573 19.23197985 48.56750999 18.10400391 45.88720703 C17.56653519 44.6057039 17.03246999 43.32276907 16.50146484 42.03857422 C8.27517676 22.1884977 -2.50312886 5.82798236 -22.43359375 -3.67578125 C-38.1381133 -10.06693626 -55.54556936 -9.97846815 -71.1171875 -3.59375 C-86.86908309 3.58775939 -95.71699456 15.60821276 -102 31.375 C-106.64707154 45.47998806 -107.49344706 60.30396384 -108.6875 75 C-121.2275 75 -133.7675 75 -146.6875 75 C-145.99002898 68.72276086 -145.34880097 64.0403977 -143.125 58.375 C-142.86251465 57.69477783 -142.6000293 57.01455566 -142.32958984 56.3137207 C-135.90200294 40.1589528 -126.5979573 26.65077823 -114.6875 14 C-114.13707031 13.38511719 -113.58664063 12.77023438 -113.01953125 12.13671875 C-101.75162322 0.03415087 -85.30377299 -8.22636202 -69.6875 -13 C-68.59888672 -13.33837891 -68.59888672 -13.33837891 -67.48828125 -13.68359375 C-45.58914548 -19.22525987 -17.88673244 -13.85869663 0 0 Z " fill="#050505" transform="translate(164.6875,20)"/>
<path d="M0 0 C30.69 0 61.38 0 93 0 C93 1.65 93 3.3 93 5 C82.44 5 71.88 5 61 5 C61 32.39 61 59.78 61 88 C50.44 88 39.88 88 29 88 C29 60.61 29 33.22 29 5 C19.43 5 9.86 5 0 5 C0 3.35 0 1.7 0 0 Z " fill="#000000" transform="translate(217,7)"/>
<path d="M0 0 C3.18637361 0.64073817 4.95955678 2.09960721 7.15625 4.43359375 C8.58287219 7.28683812 8.46658868 9.26813924 8.15625 12.43359375 C6.35631226 15.13350037 5.072477 16.97548025 2.15625 18.43359375 C-4.93333838 19.01470755 -4.93333838 19.01470755 -8.78125 16.55859375 C-11.42130824 13.83853374 -11.78738945 12.93144529 -12.21875 9.12109375 C-11.84375 5.43359375 -11.84375 5.43359375 -9.90625 2.49609375 C-6.31239755 0.07574414 -4.24433491 -0.23343842 0 0 Z " fill="#0C0C0C" transform="translate(118.84375,113.56640625)"/>
<path d="M0 0 C12.65513393 -0.27511161 12.65513393 -0.27511161 16 2 C18.4915904 5.7373856 18.45793285 7.57331583 18 12 C16.20437595 14.75329021 14.94745078 16.52627461 12 18 C9.95944995 18.07065617 7.91665743 18.08421976 5.875 18.0625 C2.966875 18.0315625 2.966875 18.0315625 0 18 C0 12.06 0 6.12 0 0 Z " fill="#060606" transform="translate(170,114)"/>
<path d="M0 0 C3.0625 1.4375 3.0625 1.4375 5 4 C5.79088528 8.18478133 5.67754997 11.70942862 3.6875 15.5 C0.20708698 18.59370046 -3.56837457 18.23324344 -8 18 C-11.38031589 16.81232145 -11.93216817 16.10174775 -14 13 C-14.5449818 8.17301831 -14.71304929 6.10407631 -12.0625 2 C-7.93149558 -0.69779881 -4.80095182 -0.90289148 0 0 Z " fill="#0D0D0D" transform="translate(152,114)"/>
<path d="M0 0 C1.32 0 2.64 0 4 0 C4.33 1.98 4.66 3.96 5 6 C5.37511719 5.566875 5.75023437 5.13375 6.13671875 4.6875 C10.36878216 0.08233276 10.36878216 0.08233276 13.875 -0.375 C14.57625 -0.25125 15.2775 -0.1275 16 0 C14.02 2.31 12.04 4.62 10 7 C11.44688546 9.89377093 12.75081864 12.18533078 14.625 14.75 C15.07101562 15.36359375 15.51703125 15.9771875 15.9765625 16.609375 C16.31429688 17.06828125 16.65203125 17.5271875 17 18 C14.8125 18.375 14.8125 18.375 12 18 C10.00977164 16.16038352 8.61010101 14.20813852 7 12 C6.01 12.495 6.01 12.495 5 13 C4.34444881 15.52733235 4.34444881 15.52733235 4 18 C2.68 18 1.36 18 0 18 C0 12.06 0 6.12 0 0 Z " fill="#0E0E0E" transform="translate(299,114)"/>
<path d="M0 0 C1.32 0 2.64 0 4 0 C4.04898438 0.84304687 4.09796875 1.68609375 4.1484375 2.5546875 C4.22320312 3.65039062 4.29796875 4.74609375 4.375 5.875 C4.44460937 6.96554688 4.51421875 8.05609375 4.5859375 9.1796875 C4.73253491 12.13046474 4.73253491 12.13046474 7 14 C9.78237655 13.59471099 9.78237655 13.59471099 12 12 C12.23427778 9.98405418 12.41336124 7.961526 12.5625 5.9375 C12.64628906 4.83277344 12.73007813 3.72804688 12.81640625 2.58984375 C12.87699219 1.73519531 12.93757812 0.88054687 13 0 C14.32 0 15.64 0 17 0 C17.77224537 11.72096861 17.77224537 11.72096861 15 16.3125 C10.80028793 18.67483804 8.78211785 18.75906633 4 18 C1.09471716 15.24735899 0.07886491 13.67271767 -0.390625 9.66796875 C-0.34421875 8.51941406 -0.2978125 7.37085937 -0.25 6.1875 C-0.21390625 5.02605469 -0.1778125 3.86460938 -0.140625 2.66796875 C-0.07101563 1.34732422 -0.07101563 1.34732422 0 0 Z " fill="#131313" transform="translate(241,114)"/>
<path d="M0 0 C0.66 1.32 1.32 2.64 2 4 C-0.37582223 4 -2.75344274 3.95479344 -5.125 3.8125 C-6.07375 3.874375 -7.0225 3.93625 -8 4 C-10.36692966 6.84826598 -10.36692966 6.84826598 -9.625 10.1875 C-9.41875 11.115625 -9.2125 12.04375 -9 13 C-6.69 13.66 -4.38 14.32 -2 15 C-2 13.02 -2 11.04 -2 9 C-0.68 9 0.64 9 2 9 C2.1875 12.375 2.1875 12.375 2 16 C-1.68497796 18.45665197 -4.71971786 18.70086491 -9 18 C-11.8100346 16.20636089 -13.50940468 14.98119065 -15 12 C-15.47707476 7.78583959 -15.43171409 5.67635208 -13.125 2.0625 C-8.75340728 -0.82275119 -5.09210661 -0.44494135 0 0 Z " fill="#0D0D0D" transform="translate(93,114)"/>
<path d="M0 0 C0.66 0.33 1.32 0.66 2 1 C1.67 2.32 1.34 3.64 1 5 C-1.01822917 4.67447917 -3.03645833 4.34895833 -5.0546875 4.0234375 C-5.69664062 4.01570313 -6.33859375 4.00796875 -7 4 C-9.31563087 5.88500271 -9.31563087 5.88500271 -9.25 9 C-9.31563087 12.11499729 -9.31563087 12.11499729 -7 14 C-5.0068433 14.02375926 -5.0068433 14.02375926 -2.875 13.625 C-1.59625 13.41875 -0.3175 13.2125 1 13 C1 14.32 1 15.64 1 17 C-2.23176757 18.61588379 -5.50615283 18.57451407 -9 18 C-11.9838283 16.01078114 -13.60276841 14.61497432 -14.4765625 11.0625 C-14.75608948 7.17854622 -14.2079849 5.32204113 -12.0625 2 C-7.99519212 -0.65620107 -4.73790088 -0.65157772 0 0 Z " fill="#0C0C0C" transform="translate(284,114)"/>
<path d="M0 0 C3.5 0.1875 3.5 0.1875 7 1 C9 4 9 4 8.8125 7.0625 C8 10 8 10 5 12 C1.9375 11.8125 1.9375 11.8125 -1 11 C-3 8 -3 8 -2.75 4.9375 C-2 2 -2 2 0 0 Z " fill="#E5E5E5" transform="translate(114,117)"/>
<path d="M0 0 C1.32 0 2.64 0 4 0 C4 4.62 4 9.24 4 14 C6.97 14 9.94 14 13 14 C13 15.32 13 16.64 13 18 C8.71 18 4.42 18 0 18 C0 12.06 0 6.12 0 0 Z " fill="#101010" transform="translate(217,114)"/>
<path d="M0 0 C1.8125 1.125 1.8125 1.125 3 3 C3.39704314 6.17634515 3.49933741 8.14003001 1.875 10.9375 C0 12 0 12 -3.0625 11.875 C-6 11 -6 11 -8 8 C-8.35840349 5.13277207 -8.41121458 3.62764331 -6.8125 1.1875 C-4.35092224 -0.42525784 -2.88934264 -0.4334014 0 0 Z " fill="#EEEEEE" transform="translate(150,117)"/>
<path d="M0 0 C7.75 0.75 7.75 0.75 10 3 C9.8125 6.5 9.8125 6.5 9 10 C6 12 6 12 0 12 C0 8.04 0 4.08 0 0 Z " fill="#E5E5E5" transform="translate(174,117)"/>
</svg>
